# xmcd
#
# Track frame offsets:
#	150
#	17194
#	35226
#	50994
#	68153
#	83897
#	99497
#	119703
#	137246
#	158190
#	172015
#	188144
#
# Disc length: 2747 seconds
#
# Revision: 1
# Processed by: cddbd v1.5.2PL0 Copyright (c) Steve Scherf et al.
# Submitted via: audiograbber 1.83.01
#
DISCID=b40ab90c
DTITLE=Dave Lorent - Terug in de tijd
DYEAR=1900
DGENRE=
TTITLE0=Dave Lorent - Ik blijf bij jou
TTITLE1=Dave Lorent - If you believe
TTITLE2=Dave Lorent - Eens zijn wij voor altijd samen
TTITLE3=Dave Lorent - Terug in de tijd
TTITLE4=Dave Lorent - Everything
TTITLE5=Dave Lorent - Geef mij een reden
TTITLE6=Dave Lorent - Never nooit meer
TTITLE7=Dave Lorent - Wat is mijn wereld zonder jou
TTITLE8=Dave Lorent - Er komt en dag
TTITLE9=Dave Lorent - I'm still standing
TTITLE10=Dave Lorent - Lost
TTITLE11=Dave Lorent - Met mijn ogen dicht
EXTD=
EXTT0=
EXTT1=
EXTT2=
EXTT3=
EXTT4=
EXTT5=
EXTT6=
EXTT7=
EXTT8=
EXTT9=
EXTT10=
EXTT11=
PLAYORDER=
